<?xml version="1.0" encoding="UTF-8"?>
<!-- Generator: Adobe Illustrator 28.3.0, SVG Export Plug-In . SVG Version: 6.00 Build 0)  -->
<svg version="1.1" id="Ebene_1" xmlns="http://www.w3.org/2000/svg" xmlns:xlink="http://www.w3.org/1999/xlink" x="0px" y="0px" viewBox="0 0 634 590" style="" xml:space="preserve">
<style type="text/css">
	.st0{fill:#56BEBF;}
	.st1{fill:#071411;}
	.st2{fill:#FFFFFF;}
</style>
<g>
	<path class="st0" d="M72.6,211.6l42.7-21.8c20.6-10.6,34.7-30.7,37.5-53.9l6-48.5c6.4-51.7,63.9-78.5,106.6-49.7l40.3,26.9   c19.2,13,43.5,15.4,64.7,6.4l44.1-18.8c47.1-20,98.8,17.4,95.8,69.5l-2.8,48.7c-1.4,23.4,8.8,45.9,27.1,60.3l38.1,29.7   c40.7,31.7,34.9,95.8-10.8,119.2l-42.7,21.6c-20.6,10.6-34.7,30.7-37.5,53.9l-6,48.5c-6.3,51-62.3,77.7-104.9,50.8   c-1.1-0.7-2.2-1.5-3.1-2.4c-7.7-6.7-45-38.7-67.1-40.8c-35.7-3.3-65.9,19.9-76.7,25.7c-3,1.6-6.1,3.1-9.4,4.2   c-45.4,14.6-92.8-21.7-89.9-71.7l2.8-48.7c1.4-23.4-8.8-45.9-27.1-60.3l-38.1-29.7C21.1,299.1,26.8,235,72.6,211.6"/>
	<g>
		<g>
			<g>
				
					<ellipse transform="matrix(0.1119 -0.9937 0.9937 0.1119 46.3363 600.9194)" class="st1" cx="359.4" cy="274.5" rx="32.5" ry="21.5"/>
				<circle class="st2" cx="358.3" cy="265.5" r="7.9"/>
			</g>
		</g>
		<g>
			<g>
				
					<ellipse transform="matrix(0.1119 -0.9937 0.9937 0.1119 -23.9638 502.9173)" class="st1" cx="269.4" cy="264.9" rx="32.5" ry="21.5"/>
				<circle class="st2" cx="268.3" cy="256.1" r="7.9"/>
			</g>
		</g>
		<path class="st1" d="M398.5,372.3c-2.4,21.6-47.3,53.7-97.4,47.9c-50.1-5.8-86.6-46.9-84.2-68.5c2.4-21.6,42.9-8.6,93-3    S400.9,350.8,398.5,372.3z"/>
	</g>
</g>
</svg>