<?xml version="1.0" encoding="UTF-8" standalone="no"?>
<!-- Generator: Adobe Illustrator 28.3.0, SVG Export Plug-In . SVG Version: 6.00 Build 0)  -->

<svg
   version="1.1"
   id="Ebene_1"
   x="0px"
   y="0px"
   viewBox="0 0 631.29376 563.28998"
   xml:space="preserve"
   sodipodi:docname="block-icon.svg"
   width="631.29376"
   height="563.28998"
   xmlns:inkscape="http://www.inkscape.org/namespaces/inkscape"
   xmlns:sodipodi="http://sodipodi.sourceforge.net/DTD/sodipodi-0.dtd"
   xmlns="http://www.w3.org/2000/svg"
   xmlns:svg="http://www.w3.org/2000/svg"><defs
   id="defs1" /><sodipodi:namedview
   id="namedview1"
   pagecolor="#ffffff"
   bordercolor="#666666"
   borderopacity="1.0"
   inkscape:showpageshadow="2"
   inkscape:pageopacity="0.0"
   inkscape:pagecheckerboard="0"
   inkscape:deskcolor="#d1d1d1" />
<style
   type="text/css"
   id="style1">
	.st0{fill:#FFFFFF;}
</style>
<g
   id="g1"
   transform="translate(-367.40462,-102.41)">
	<path
   class="st0"
   d="m 998.6,382.1 c 0.1,-0.7 0.1,-1.4 0,-2.2 -1.3,-18.5 -13.3,-34.2 -30.7,-40.2 -17.7,-6 -45.8,-22.3 -79.2,-65.9 -28.5,-37.2 -27.1,-84.9 -23.6,-117.6 2.4,-22.2 -10.7,-42.9 -31.8,-50.4 l -1.2,-0.4 c -14.4,-5.1 -30.5,-2.9 -42.9,5.9 -21.4,15 -63.6,40.1 -106.4,40.1 -40.3,0 -83.6,-25.2 -105.9,-40.3 -17.9,-12.1 -41.6,-11.5 -59,1.4 -12.5,9.2 -18.3,26 -15.7,44.8 2.2,15.5 6.9,69.7 -24.3,115.2 -21.5,31.4 -55.4,52.4 -80.1,64.6 -27.5,13.6 -31.7,35 -30.1,51 h -0.2 c 1.3,18.5 13.3,34.2 30.7,40.2 17.7,6 45.8,22.3 79.2,66 28.5,37.2 27.1,84.9 23.6,117.6 -2.4,22.2 10.7,42.9 31.8,50.4 l 1.2,0.4 c 14.4,5.1 30.5,2.9 42.9,-5.8 21.4,-15 63.6,-40.2 106.4,-40.2 40.3,0 83.6,25.2 105.9,40.3 8.6,5.8 18.6,8.7 28.5,8.7 10.7,0 21.5,-3.4 30.5,-10.1 12.5,-9.2 18.3,-26 15.7,-44.8 -2.2,-15.5 -6.9,-69.7 24.3,-115.2 21.5,-31.4 55.5,-52.4 80.1,-64.6 26.3,-13.1 31.2,-33.2 30.3,-48.9 z M 574.2,509.4 c -12.4,0 -22.4,-10 -22.4,-22.4 0,-12.4 10,-22.4 22.4,-22.4 12.4,0 22.4,10 22.4,22.4 0,12.4 -10.1,22.4 -22.4,22.4 z m 0,-70.7 c -12.4,0 -22.4,-10 -22.4,-22.4 0,-12.4 10,-22.4 22.4,-22.4 12.4,0 22.4,10 22.4,22.4 -0.1,12.4 -10.1,22.4 -22.4,22.4 z m 0,-70.7 c -12.4,0 -22.4,-10 -22.4,-22.4 0,-12.4 10,-22.4 22.4,-22.4 12.4,0 22.4,10 22.4,22.4 0,12.4 -10.1,22.4 -22.4,22.4 z m 0,-70.7 c -12.4,0 -22.4,-10 -22.4,-22.4 0,-12.4 10,-22.4 22.4,-22.4 12.4,0 22.4,10 22.4,22.4 0,12.4 -10.1,22.4 -22.4,22.4 z m 72.2,212.1 c -12.4,0 -22.4,-10 -22.4,-22.4 0,-12.4 10,-22.4 22.4,-22.4 12.4,0 22.4,10 22.4,22.4 0,12.4 -10,22.4 -22.4,22.4 z m 0,-70.7 c -12.4,0 -22.4,-10 -22.4,-22.4 0,-12.4 10,-22.4 22.4,-22.4 12.4,0 22.4,10 22.4,22.4 0,12.4 -10,22.4 -22.4,22.4 z m 0,-70.7 C 634,368 624,358 624,345.6 c 0,-12.4 10,-22.4 22.4,-22.4 12.4,0 22.4,10 22.4,22.4 0,12.4 -10,22.4 -22.4,22.4 z m 0,-70.7 c -12.4,0 -22.4,-10 -22.4,-22.4 0,-12.4 10,-22.4 22.4,-22.4 12.4,0 22.4,10 22.4,22.4 0,12.4 -10,22.4 -22.4,22.4 z m 72.3,212.1 c -12.4,0 -22.4,-10 -22.4,-22.4 0,-12.4 10,-22.4 22.4,-22.4 12.4,0 22.4,10 22.4,22.4 0,12.4 -10.1,22.4 -22.4,22.4 z m 0,-70.7 c -12.4,0 -22.4,-10 -22.4,-22.4 0,-12.4 10,-22.4 22.4,-22.4 12.4,0 22.4,10 22.4,22.4 -0.1,12.4 -10.1,22.4 -22.4,22.4 z m 0,-70.7 c -12.4,0 -22.4,-10 -22.4,-22.4 0,-12.4 10,-22.4 22.4,-22.4 12.4,0 22.4,10 22.4,22.4 0,12.4 -10.1,22.4 -22.4,22.4 z m 0,-70.7 c -12.4,0 -22.4,-10 -22.4,-22.4 0,-12.4 10,-22.4 22.4,-22.4 12.4,0 22.4,10 22.4,22.4 0,12.4 -10.1,22.4 -22.4,22.4 z m 72.2,212.1 c -12.4,0 -22.4,-10 -22.4,-22.4 0,-12.4 10,-22.4 22.4,-22.4 12.4,0 22.4,10 22.4,22.4 0,12.4 -10.1,22.4 -22.4,22.4 z m 0,-70.7 c -12.4,0 -22.4,-10 -22.4,-22.4 0,-12.4 10,-22.4 22.4,-22.4 12.4,0 22.4,10 22.4,22.4 0,12.4 -10.1,22.4 -22.4,22.4 z m 0,-70.7 c -12.4,0 -22.4,-10 -22.4,-22.4 0,-12.4 10,-22.4 22.4,-22.4 12.4,0 22.4,10 22.4,22.4 0,12.4 -10.1,22.4 -22.4,22.4 z m 0,-70.7 c -12.4,0 -22.4,-10 -22.4,-22.4 0,-12.4 10,-22.4 22.4,-22.4 12.4,0 22.4,10 22.4,22.4 0,12.4 -10.1,22.4 -22.4,22.4 z"
   id="path1" />
</g>
</svg>
