<?xml version="1.0" encoding="UTF-8"?>
<svg id="Ebene_1" data-name="Ebene 1" xmlns="http://www.w3.org/2000/svg" width="20" height="20" version="1.1" viewBox="0 0 634 590">
  <defs>
    <style>
      .cls-1 {
        fill: #303030;
        stroke-width: 0px;
      }
    </style>
  </defs>
  <path class="cls-1" d="M631.6,293.1c0-.7,0-1.4,0-2.2-1.3-18.4-13.3-34.1-30.6-40.1-17.6-6-45.7-22.2-79-65.7-28.4-37.1-27-84.7-23.5-117.3,2.4-22.1-10.7-42.8-31.7-50.3l-1.2-.4c-14.4-5.1-30.4-2.9-42.8,5.9-21.3,15-63.4,40-106.1,40s-83.4-25.1-105.6-40.2c-17.8-12.1-41.5-11.5-58.8,1.4-12.5,9.2-18.2,25.9-15.7,44.7,2.2,15.5,6.9,69.5-24.2,114.9-21.4,31.3-55.2,52.3-79.9,64.4-27.4,13.6-31.6,34.9-30,50.9h-.2c1.3,18.4,13.3,34.1,30.6,40.1,17.6,6,45.7,22.2,79,65.8,28.4,37.1,27,84.7,23.5,117.3-2.4,22.1,10.7,42.8,31.7,50.3l1.2.4c14.4,5.1,30.4,2.9,42.8-5.8,21.3-15,63.4-40.1,106.1-40.1s83.4,25.1,105.6,40.2c8.6,5.8,18.5,8.7,28.4,8.7s21.4-3.4,30.4-10.1c12.5-9.2,18.2-25.9,15.7-44.7-2.2-15.5-6.9-69.5,24.2-114.9,21.4-31.3,55.3-52.3,79.9-64.4,26.2-13.1,31.1-33.1,30.2-48.8ZM208.5,420c-12.4,0-22.3-10-22.3-22.3s10-22.3,22.3-22.3,22.3,10,22.3,22.3-10.1,22.3-22.3,22.3ZM208.5,349.5c-12.4,0-22.3-10-22.3-22.3s10-22.3,22.3-22.3,22.3,10,22.3,22.3c0,12.4-10.1,22.3-22.3,22.3ZM208.5,279c-12.4,0-22.3-10-22.3-22.3s10-22.3,22.3-22.3,22.3,10,22.3,22.3-10.1,22.3-22.3,22.3ZM208.5,208.5c-12.4,0-22.3-10-22.3-22.3s10-22.3,22.3-22.3,22.3,10,22.3,22.3-10.1,22.3-22.3,22.3ZM280.5,420c-12.4,0-22.3-10-22.3-22.3s10-22.3,22.3-22.3,22.3,10,22.3,22.3-10,22.3-22.3,22.3ZM280.5,349.5c-12.4,0-22.3-10-22.3-22.3s10-22.3,22.3-22.3,22.3,10,22.3,22.3c0,12.4-10,22.3-22.3,22.3ZM280.5,279c-12.4,0-22.3-10-22.3-22.3s10-22.3,22.3-22.3,22.3,10,22.3,22.3-10,22.3-22.3,22.3ZM280.5,208.5c-12.4,0-22.3-10-22.3-22.3s10-22.3,22.3-22.3,22.3,10,22.3,22.3-10,22.3-22.3,22.3ZM352.5,420c-12.4,0-22.3-10-22.3-22.3s10-22.3,22.3-22.3,22.3,10,22.3,22.3-10.1,22.3-22.3,22.3ZM352.5,349.5c-12.4,0-22.3-10-22.3-22.3s10-22.3,22.3-22.3,22.3,10,22.3,22.3c0,12.4-10.1,22.3-22.3,22.3ZM352.5,279c-12.4,0-22.3-10-22.3-22.3s10-22.3,22.3-22.3,22.3,10,22.3,22.3-10.1,22.3-22.3,22.3ZM352.5,208.5c-12.4,0-22.3-10-22.3-22.3s10-22.3,22.3-22.3,22.3,10,22.3,22.3-10.1,22.3-22.3,22.3ZM424.5,420c-12.4,0-22.3-10-22.3-22.3s10-22.3,22.3-22.3,22.3,10,22.3,22.3-10.1,22.3-22.3,22.3ZM424.5,349.5c-12.4,0-22.3-10-22.3-22.3s10-22.3,22.3-22.3,22.3,10,22.3,22.3c0,12.4-10.1,22.3-22.3,22.3ZM424.5,279c-12.4,0-22.3-10-22.3-22.3s10-22.3,22.3-22.3,22.3,10,22.3,22.3-10.1,22.3-22.3,22.3ZM424.5,208.5c-12.4,0-22.3-10-22.3-22.3s10-22.3,22.3-22.3,22.3,10,22.3,22.3-10.1,22.3-22.3,22.3Z"/>
</svg>
